<?xml version="1.0" encoding="UTF-8" standalone="no"?>
<!DOCTYPE svg PUBLIC "-//W3C//DTD SVG 1.1//EN"
 "http://www.w3.org/Graphics/SVG/1.1/DTD/svg11.dtd">
<!-- Generated by graphviz version 9.0.0 (0)
 -->
<!-- Title: Flow Pages: 1 -->
<svg width="332pt" height="111pt"
 viewBox="0.00 0.00 332.00 110.59" xmlns="http://www.w3.org/2000/svg" xmlns:xlink="http://www.w3.org/1999/xlink">
<g id="graph0" class="graph" transform="scale(1 1) rotate(0) translate(4 106.59)">
<title>Flow</title>
<polygon fill="#ffffff" stroke="none" points="-4,4 -4,-106.59 328,-106.59 328,4 -4,4"/>
<!-- Step_5224164640 -->
<g id="node1" class="node">
<title>Step_5224164640</title>
<path fill="#43fda2" stroke="#30c1d7" d="M132,-102.59C132,-102.59 102,-102.59 102,-102.59 96,-102.59 90,-96.59 90,-90.59 90,-90.59 90,-78.59 90,-78.59 90,-72.59 96,-66.59 102,-66.59 102,-66.59 132,-66.59 132,-66.59 138,-66.59 144,-72.59 144,-78.59 144,-78.59 144,-90.59 144,-90.59 144,-96.59 138,-102.59 132,-102.59"/>
<text text-anchor="middle" x="117" y="-81.84" font-family="Monaco, Consolas, monospace" font-size="10.00" fill="#000000">lower</text>
</g>
<!-- Step_5224832352 -->
<g id="node4" class="node">
<title>Step_5224832352</title>
<path fill="#43fda2" stroke="#30c1d7" d="M232,-48.59C232,-48.59 192,-48.59 192,-48.59 186,-48.59 180,-42.59 180,-36.59 180,-36.59 180,-24.59 180,-24.59 180,-18.59 186,-12.59 192,-12.59 192,-12.59 232,-12.59 232,-12.59 238,-12.59 244,-18.59 244,-24.59 244,-24.59 244,-36.59 244,-36.59 244,-42.59 238,-48.59 232,-48.59"/>
<text text-anchor="middle" x="212" y="-27.84" font-family="Monaco, Consolas, monospace" font-size="10.00" fill="#000000">annotate</text>
</g>
<!-- Step_5224164640&#45;&gt;Step_5224832352 -->
<g id="edge3" class="edge">
<title>Step_5224164640&#45;&gt;Step_5224832352</title>
<path fill="none" stroke="#30c1d7" d="M144.4,-69.26C152.28,-64.69 161.1,-59.56 169.69,-54.58"/>
<polygon fill="#30c1d7" stroke="#30c1d7" points="171.39,-57.64 178.28,-49.59 167.87,-51.58 171.39,-57.64"/>
</g>
<!-- Step_5224930896 -->
<g id="node2" class="node">
<title>Step_5224930896</title>
<path fill="#43fda2" stroke="#30c1d7" d="M132,-48.59C132,-48.59 102,-48.59 102,-48.59 96,-48.59 90,-42.59 90,-36.59 90,-36.59 90,-24.59 90,-24.59 90,-18.59 96,-12.59 102,-12.59 102,-12.59 132,-12.59 132,-12.59 138,-12.59 144,-18.59 144,-24.59 144,-24.59 144,-36.59 144,-36.59 144,-42.59 138,-48.59 132,-48.59"/>
<text text-anchor="middle" x="117" y="-27.84" font-family="Monaco, Consolas, monospace" font-size="10.00" fill="#000000">upper</text>
</g>
<!-- Step_5224930896&#45;&gt;Step_5224832352 -->
<g id="edge6" class="edge">
<title>Step_5224930896&#45;&gt;Step_5224832352</title>
<path fill="none" stroke="#30c1d7" d="M144.4,-30.59C151.85,-30.59 160.14,-30.59 168.29,-30.59"/>
<polygon fill="#30c1d7" stroke="#30c1d7" points="168.07,-34.09 178.07,-30.59 168.07,-27.09 168.07,-34.09"/>
</g>
<!-- DictProducer_5224445520 -->
<g id="node3" class="node">
<title>DictProducer_5224445520</title>
<path fill="none" stroke="#30c1d7" d="M42,-48.59C42,-48.59 12,-48.59 12,-48.59 6,-48.59 0,-42.59 0,-36.59 0,-36.59 0,-24.59 0,-24.59 0,-18.59 6,-12.59 12,-12.59 12,-12.59 42,-12.59 42,-12.59 48,-12.59 54,-18.59 54,-24.59 54,-24.59 54,-36.59 54,-36.59 54,-42.59 48,-48.59 42,-48.59"/>
<text text-anchor="middle" x="27" y="-27.84" font-family="Monaco, Consolas, monospace" font-size="10.00" fill="#000000">input</text>
</g>
<!-- DictProducer_5224445520&#45;&gt;Step_5224164640 -->
<g id="edge1" class="edge">
<title>DictProducer_5224445520&#45;&gt;Step_5224164640</title>
<path fill="none" stroke="#30c1d7" d="M54.4,-46.79C62.41,-51.7 71.34,-57.19 79.87,-62.42"/>
<polygon fill="#30c1d7" stroke="#30c1d7" points="77.97,-65.36 88.33,-67.61 81.63,-59.39 77.97,-65.36"/>
</g>
<!-- DictProducer_5224445520&#45;&gt;Step_5224930896 -->
<g id="edge4" class="edge">
<title>DictProducer_5224445520&#45;&gt;Step_5224930896</title>
<path fill="none" stroke="#30c1d7" d="M54.4,-30.59C61.89,-30.59 70.18,-30.59 78.2,-30.59"/>
<polygon fill="#30c1d7" stroke="#30c1d7" points="78.1,-34.09 88.1,-30.59 78.1,-27.09 78.1,-34.09"/>
</g>
<!-- DictProducer_5224445520&#45;&gt;Step_5224832352 -->
<g id="edge5" class="edge">
<title>DictProducer_5224445520&#45;&gt;Step_5224832352</title>
<path fill="none" stroke="#30c1d7" d="M54.37,-16.26C65.09,-11.19 77.82,-6.13 90,-3.59 113.5,1.3 120.44,0.98 144,-3.59 152.39,-5.22 161.06,-7.89 169.27,-10.94"/>
<polygon fill="#30c1d7" stroke="#30c1d7" points="167.73,-14.1 178.32,-14.54 170.32,-7.59 167.73,-14.1"/>
</g>
<!-- _EndNode_5224990864 -->
<g id="node5" class="node">
<title>_EndNode_5224990864</title>
<ellipse fill="none" stroke="#30c1d7" stroke-dasharray="5,2" cx="302" cy="-30.59" rx="18" ry="18"/>
<ellipse fill="none" stroke="#30c1d7" stroke-dasharray="5,2" cx="302" cy="-30.59" rx="22" ry="22"/>
<text text-anchor="middle" x="302" y="-27.84" font-family="Monaco, Consolas, monospace" font-size="10.00" fill="#30c1d7">||</text>
</g>
<!-- Step_5224832352&#45;&gt;_EndNode_5224990864 -->
<g id="edge2" class="edge">
<title>Step_5224832352&#45;&gt;_EndNode_5224990864</title>
<path fill="none" stroke="#30c1d7" stroke-dasharray="5,2" d="M244.27,-30.59C252.08,-30.59 260.47,-30.59 268.35,-30.59"/>
<polygon fill="#30c1d7" stroke="#30c1d7" points="268.24,-34.09 278.24,-30.59 268.24,-27.09 268.24,-34.09"/>
</g>
</g>
</svg>
