<?xml version="1.0" encoding="UTF-8" standalone="no"?>
<!DOCTYPE svg PUBLIC "-//W3C//DTD SVG 1.1//EN"
 "http://www.w3.org/Graphics/SVG/1.1/DTD/svg11.dtd">
<!-- Generated by graphviz version 9.0.0 (0)
 -->
<!-- Title: Flow Pages: 1 -->
<svg width="564pt" height="52pt"
 viewBox="0.00 0.00 564.00 52.00" xmlns="http://www.w3.org/2000/svg" xmlns:xlink="http://www.w3.org/1999/xlink">
<g id="graph0" class="graph" transform="scale(1 1) rotate(0) translate(4 48)">
<title>Flow</title>
<polygon fill="#000000" stroke="none" points="-4,4 -4,-48 560,-48 560,4 -4,4"/>
<!-- NumberProducer_4949763216 -->
<g id="node1" class="node">
<title>NumberProducer_4949763216</title>
<path fill="none" stroke="#30c1d7" d="M12,-0.5C12,-0.5 88,-0.5 88,-0.5 94,-0.5 100,-6.5 100,-12.5 100,-12.5 100,-31.5 100,-31.5 100,-37.5 94,-43.5 88,-43.5 88,-43.5 12,-43.5 12,-43.5 6,-43.5 0,-37.5 0,-31.5 0,-31.5 0,-12.5 0,-12.5 0,-6.5 6,-0.5 12,-0.5"/>
<text text-anchor="middle" x="50" y="-30" font-family="Monaco, Consolas, monospace" font-size="10.00" fill="#ffffff">NumberProducer</text>
<polyline fill="none" stroke="#30c1d7" points="0,-22 100,-22"/>
<text text-anchor="start" x="8" y="-8.5" font-family="Monaco, Consolas, monospace" font-size="10.00" fill="#ffffff">n=5</text>
</g>
<!-- DoublingTransformer_4949758352 -->
<g id="node4" class="node">
<title>DoublingTransformer_4949758352</title>
<path fill="#43fda2" stroke="#30c1d7" d="M254,-40C254,-40 148,-40 148,-40 142,-40 136,-34 136,-28 136,-28 136,-16 136,-16 136,-10 142,-4 148,-4 148,-4 254,-4 254,-4 260,-4 266,-10 266,-16 266,-16 266,-28 266,-28 266,-34 260,-40 254,-40"/>
<text text-anchor="middle" x="201" y="-19.25" font-family="Monaco, Consolas, monospace" font-size="10.00" fill="#000000">DoublingTransformer</text>
</g>
<!-- NumberProducer_4949763216&#45;&gt;DoublingTransformer_4949758352 -->
<g id="edge3" class="edge">
<title>NumberProducer_4949763216&#45;&gt;DoublingTransformer_4949758352</title>
<path fill="none" stroke="#30c1d7" d="M100.2,-22C107.92,-22 116.05,-22 124.21,-22"/>
<polygon fill="#30c1d7" stroke="#30c1d7" points="124.19,-25.5 134.19,-22 124.19,-18.5 124.19,-25.5"/>
</g>
<!-- SquareTransformer_4949873680 -->
<g id="node2" class="node">
<title>SquareTransformer_4949873680</title>
<path fill="#43fda2" stroke="#30c1d7" d="M408,-40C408,-40 314,-40 314,-40 308,-40 302,-34 302,-28 302,-28 302,-16 302,-16 302,-10 308,-4 314,-4 314,-4 408,-4 408,-4 414,-4 420,-10 420,-16 420,-16 420,-28 420,-28 420,-34 414,-40 408,-40"/>
<text text-anchor="middle" x="361" y="-19.25" font-family="Monaco, Consolas, monospace" font-size="10.00" fill="#000000">SquareTransformer</text>
</g>
<!-- NumberConsumer_4949878224 -->
<g id="node3" class="node">
<title>NumberConsumer_4949878224</title>
<path fill="none" stroke="#30c1d7" d="M544,-40C544,-40 468,-40 468,-40 462,-40 456,-34 456,-28 456,-28 456,-16 456,-16 456,-10 462,-4 468,-4 468,-4 544,-4 544,-4 550,-4 556,-10 556,-16 556,-16 556,-28 556,-28 556,-34 550,-40 544,-40"/>
<text text-anchor="middle" x="506" y="-19.25" font-family="Monaco, Consolas, monospace" font-size="10.00" fill="#ffffff">NumberConsumer</text>
</g>
<!-- SquareTransformer_4949873680&#45;&gt;NumberConsumer_4949878224 -->
<g id="edge1" class="edge">
<title>SquareTransformer_4949873680&#45;&gt;NumberConsumer_4949878224</title>
<path fill="none" stroke="#30c1d7" d="M420.16,-22C428.06,-22 436.18,-22 444.13,-22"/>
<polygon fill="#30c1d7" stroke="#30c1d7" points="444.07,-25.5 454.07,-22 444.07,-18.5 444.07,-25.5"/>
</g>
<!-- DoublingTransformer_4949758352&#45;&gt;SquareTransformer_4949873680 -->
<g id="edge2" class="edge">
<title>DoublingTransformer_4949758352&#45;&gt;SquareTransformer_4949873680</title>
<path fill="none" stroke="#30c1d7" d="M266.26,-22C274.13,-22 282.19,-22 290.14,-22"/>
<polygon fill="#30c1d7" stroke="#30c1d7" points="290.13,-25.5 300.13,-22 290.13,-18.5 290.13,-25.5"/>
</g>
</g>
</svg>
